# xmcd
#
# Track frame offsets: 
#        150
#        12554
#        27462
#        42581
#        60085
#        77272
#        95403
#        106325
#        121827
#        139294
#        156078
#        174810
#        192905
#        208944
#        222088
#        241867
#
# Disc length: 3437 seconds
#
# Revision: 0
# Processed by: cddbd v1.5.2PL0 Copyright (c) Steve Scherf et al.
# Submitted via: ExactAudioCopy v1.0b3
#
DISCID=cf0d6b10
DTITLE=Don Moen - Hymnbook (2012)
DYEAR=2012
DGENRE=Hymns
TTITLE0=All Creatures Of Our God And King
TTITLE1=Grace Greater Than Our Sin
TTITLE2=Our Great Savior
TTITLE3=He Giveth More Grace
TTITLE4='Tis So Sweet To Trust In Jesus
TTITLE5=It Is Well With My Soul
TTITLE6=O God Our Help In Ages Past
TTITLE7=Come Thou Fount Of Every Blessing
TTITLE8=Wonderful Peace
TTITLE9=My Jesus I Love Thee
TTITLE10=Great Is Thy Faithfulness
TTITLE11=I Surrender All
TTITLE12=Softly And Tenderly
TTITLE13=Abide With Me
TTITLE14=How Great Thou Art
TTITLE15=Holy Holy Holy
EXTD=
EXTT0=
EXTT1=
EXTT2=
EXTT3=
EXTT4=
EXTT5=
EXTT6=
EXTT7=
EXTT8=
EXTT9=
EXTT10=
EXTT11=
EXTT12=
EXTT13=
EXTT14=
EXTT15=
PLAYORDER=
